<svg id="Capa_1" enable-background="new 0 0 512 512" height="512" viewBox="0 0 512 512" width="512" xmlns="http://www.w3.org/2000/svg"><g><path d="m418.465 32.678c-12.041-5.277-25.416-5.542-37.658-.745-12.266 4.808-21.923 14.117-27.191 26.215l-45.128 103.613c-.752 1.727-2.127 2.478-2.88 2.771s-2.273.675-3.999-.085c-1.889-.833-3.109-2.705-3.109-4.769v-110.336c0-27.207-22.087-49.342-49.235-49.342-13.103 0-25.477 5.118-34.84 14.412-9.255 9.186-14.554 21.441-14.919 34.511-.004.14-.006.279-.006.419v75.952c-5.912-2.519-12.413-3.916-19.235-3.916-19.307 0-36.045 11.176-44.108 27.394-2.38-1.247-4.872-2.319-7.474-3.179-12.483-4.127-25.825-3.139-37.567 2.787-24.229 12.226-34.032 41.935-21.852 66.226l3.314 6.608v62.042c0 55.656 28.937 106.6 76.117 135.076v4.076h-4.527c-8.284 0-15 6.716-15 15v59.592c0 8.284 6.716 15 15 15s15-6.716 15-15v-44.592h137.206v44.592c0 8.284 6.716 15 15 15s15-6.716 15-15v-59.592c0-8.284-6.716-15-15-15h-.502v-4.076c47.181-28.476 76.117-79.417 76.117-135.02l.205-54.7 56.668-130.988c10.852-24.917-.54-54.052-25.397-64.946zm-257.435 137.934c0-10.605 8.629-19.234 19.235-19.234s19.235 8.629 19.235 19.234v10.242c-6.232-2.765-13.574-.992-17.834 4.384-7.246 9.146-12.363 19.436-15.201 30.216-3.36-3.483-5.435-8.201-5.435-13.34zm-56.399 4.551c4.576-2.309 9.772-2.693 14.634-1.087 5.352 1.697 9.347 5.719 11.765 10.722v17.316c0 11.561 4.097 22.301 10.932 30.787-1.65 1.961-3.692 3.59-6.064 4.787-4.574 2.309-9.771 2.694-14.634 1.087-4.886-1.615-8.851-5.049-11.167-9.666l-14.016-27.951c-4.783-9.541-.948-21.202 8.55-25.995zm184.243 221.154c-4.922 2.597-8.002 7.703-8.002 13.268v12.823h-102.177v-12.823c0-5.564-3.08-10.671-8.001-13.268-42.015-22.163-68.116-65.486-68.116-113.062v-20.159c2.908 1.681 6.006 3.083 9.269 4.162 5.071 1.677 10.285 2.509 15.474 2.509 7.585 0 15.121-1.777 22.091-5.295 6.272-3.164 11.733-7.632 16.083-13.007.097.467.191.935.297 1.401 6.174 27.227 24.152 47.996 54.899 63.434-7.964 7.276-14.207 16.422-18.171 26.918-3.628 9.606-5.084 19.638-4.326 29.814.586 7.883 7.164 13.888 14.943 13.888.373 0 .75-.014 1.128-.042 8.261-.615 14.461-7.81 13.846-16.072-.43-5.785.402-11.501 2.475-16.989 4.456-11.798 13.964-20.605 26.089-24.162 5.93-1.74 10.186-6.939 10.721-13.095s-2.76-12.011-8.301-14.747l-23.725-11.72c-23.315-11.435-36.127-25.372-40.32-43.861-2.424-10.691-.961-22.175 3.888-32.346l132.099 63.925c20.022 9.819 23.584 34.653 16.787 53.107-11.065 27.642-31.641 50.993-58.95 65.399zm127.469-310.638-57.904 133.845c-.807 1.863-1.226 3.87-1.233 5.899l-.127 33.848c-3.883-3.272-8.188-6.117-12.902-8.43l-114.677-55.493v-24.736-121.031c.397-10.813 9.226-19.581 19.765-19.581 10.606 0 19.234 8.677 19.234 19.342v110.337c0 13.945 8.245 26.591 21.006 32.219 8.633 3.805 18.228 4.013 27.019.578 8.788-3.433 15.702-10.088 19.469-18.737l45.127-103.613c2.064-4.738 5.841-8.383 10.635-10.262 4.768-1.867 9.978-1.765 14.669.29 9.74 4.27 14.196 15.704 9.919 25.525z"/></g></svg>